<svg width="36" height="36" xmlns="http://www.w3.org/2000/svg">

 <g>
  <title>background</title>
  <rect fill="none" id="canvas_background" height="38" width="38" y="-1" x="-1"/>
 </g>
 <g>
  <title>Layer 1</title>
  <g stroke="null" id="Layer_1">
   <g stroke="null" id="svg_1">
    <g stroke="null" id="svg_2">
     <path stroke="null" id="svg_3" fill="#2F353A" d="m4.12512,31.979812c0.225336,-0.842781 0.592947,-1.618361 0.898719,-2.428094c0.350155,-0.927305 0.639269,-1.879918 0.990451,-2.807223c0.666195,-1.759152 1.550767,-3.471497 2.402365,-5.133471c0.413249,-0.806416 0.983719,-1.347221 1.657559,-1.896381c0.691752,-0.563656 1.34631,-1.173874 1.979304,-1.812225c1.24876,-1.25938 2.395291,-2.631418 3.591339,-3.947558c1.250015,-1.375601 2.541446,-2.706851 3.795225,-4.078643c0.593631,-0.649531 1.188176,-1.3041 1.740505,-1.99491c0.559289,-0.699656 1.041793,-1.466022 1.600284,-2.166906c0.481933,-0.604689 1.01384,-1.20471 1.742217,-1.436659c0.676007,-0.215118 1.368216,0.204061 1.911532,0.590438c0.542289,0.385517 1.018176,0.875952 1.514713,1.32437c0.506464,0.457387 1.042706,0.864895 1.519505,1.360735c0.443598,0.461195 0.80539,0.992172 0.950518,1.644652c0.160302,0.72005 -0.255,1.443171 -0.615766,2.007564c-0.866545,1.355698 -2.242975,2.32588 -3.320822,3.473094c-1.169578,1.244884 -2.227002,2.605742 -3.378212,3.869791c-1.270894,1.395012 -2.564607,2.764961 -3.811427,4.185035c-1.173115,1.336164 -2.284163,2.733633 -3.456024,4.071149c-0.520383,0.593755 -1.051149,1.120555 -1.637935,1.633472c-0.114322,0.099881 -0.236403,0.245463 -0.312161,0.382323c0.168973,-0.305416 0.346276,-0.239198 0.003423,-0.160571c-0.327108,0.074941 -0.64794,0.191899 -0.966605,0.299519c-3.012768,1.0192 -6.194168,1.366264 -9.249493,2.222805c-0.711491,0.199393 -0.40937,1.384446 0.303262,1.184685c3.053956,-0.856172 6.241973,-1.190582 9.249493,-2.222805c0.444396,-0.152462 1.153833,-0.199638 1.514485,-0.52336c0.510571,-0.458124 1.021028,-0.967724 1.490411,-1.484818c1.230961,-1.356067 2.37213,-2.802309 3.570004,-4.191424c1.234498,-1.431745 2.525244,-2.806363 3.802527,-4.193512c1.212478,-1.316631 2.333452,-2.724911 3.540225,-4.04707c1.698176,-1.860507 5.458147,-4.280616 4.189649,-7.431709c-0.520839,-1.294025 -1.601767,-2.084102 -2.578184,-2.948383c-1.008592,-0.89266 -1.982955,-1.969725 -3.310326,-2.264207c-1.502733,-0.333304 -2.678929,0.791305 -3.58495,1.9282c-0.520611,0.653217 -0.976075,1.36307 -1.487102,2.024641c-0.585873,0.758503 -1.24876,1.45693 -1.890881,2.159658c-1.253552,1.371792 -2.544526,2.703165 -3.794541,4.078889c-1.194451,1.314542 -2.343721,2.675646 -3.590997,3.933552c-1.191713,1.201885 -2.710533,2.096388 -3.56989,3.626293c-0.895753,1.594773 -1.673988,3.334269 -2.385593,5.031994c-0.406517,0.970058 -0.725867,1.979799 -1.069062,2.976762c-0.329047,0.955807 -0.784853,1.85031 -1.047726,2.833514c-0.204228,0.763294 0.896894,1.08677 1.099981,0.326793l0,0z"/>
    </g>
   </g>
   <g stroke="null" id="svg_4">
    <g stroke="null" id="svg_5">
     <path stroke="null" id="svg_6" fill="#2F353A" d="m7.510748,21.55537c0.670303,0.104549 1.355324,0.135017 2.009539,0.33527c0.401497,0.122977 0.782229,0.476307 1.114471,0.737986c0.442229,0.348047 0.865061,0.738109 1.263478,1.1423c0.650222,0.659851 1.116182,1.458896 1.47227,2.334357c0.173195,0.425936 0.320947,0.864158 0.482732,1.295131c0.224879,0.598915 0.263215,1.166871 0.338745,1.799694c0.023161,0.193619 0.308624,0.196076 0.285235,0c-0.06298,-0.528397 -0.058416,-1.056179 -0.22545,-1.563199c-0.151403,-0.459598 -0.340571,-0.912563 -0.510115,-1.365158c-0.33749,-0.90126 -0.77139,-1.712345 -1.380652,-2.43264c-0.706927,-0.835779 -1.629263,-1.609516 -2.550231,-2.155358c-0.626148,-0.371143 -1.532968,-0.316842 -2.224264,-0.424585c-0.179812,-0.028011 -0.257168,0.267945 -0.075758,0.296202l0,0z"/>
    </g>
   </g>
   <g stroke="null" id="svg_7">
    <g stroke="null" id="svg_8">
     <path stroke="null" id="svg_9" fill="#2F353A" d="m21.78734,6.373637c3.193037,0.64904 5.567791,3.696198 7.189296,6.510915c0.096752,0.167942 0.343537,0.01376 0.246215,-0.155042c-1.659156,-2.880076 -4.09381,-5.988169 -7.359753,-6.652075c-0.179698,-0.036488 -0.256369,0.259469 -0.075758,0.296202l0,0z"/>
    </g>
   </g>
   <g stroke="null" id="svg_10">
    <g stroke="null" id="svg_11">
     <path stroke="null" id="svg_12" fill="#2F353A" d="m20.704473,7.810542c0.18392,0 0.18392,-0.307136 0,-0.307136s-0.18392,0.307136 0,0.307136l0,0z"/>
    </g>
   </g>
   <g stroke="null" id="svg_13">
    <g stroke="null" id="svg_14">
     <path stroke="null" id="svg_15" fill="#2F353A" d="m20.742352,7.805137c0.413591,-0.134403 1.194793,0.523974 1.524069,0.739706c0.559061,0.366229 1.075679,0.791674 1.612035,1.192548c1.629834,1.218224 3.15744,2.850959 3.814165,4.908893c0.059443,0.186124 0.33498,0.106146 0.274967,-0.081698c-0.687759,-2.155235 -2.255069,-3.799518 -3.945031,-5.092315c-0.606866,-0.464144 -1.204491,-0.932588 -1.845129,-1.343659c-0.362819,-0.232809 -1.049437,-0.76956 -1.510834,-0.619678c-0.175591,0.057004 -0.100745,0.353452 0.075758,0.296202l0,0z"/>
    </g>
   </g>
   <g stroke="null" id="svg_16">
    <g stroke="null" id="svg_17">
     <path stroke="null" id="svg_18" fill="#2F353A" d="m10.31267,22.138192c1.180189,-0.931851 2.106861,-2.166537 3.205473,-3.199866c1.137062,-1.06957 2.268875,-2.127101 3.371936,-3.238319c1.105343,-1.113429 2.207949,-2.230299 3.250997,-3.412035c0.965464,-1.093896 1.773592,-2.31986 2.712359,-3.436238c0.123108,-0.14632 -0.07804,-0.364263 -0.201718,-0.217207c-0.846806,1.006915 -1.580089,2.112113 -2.433284,3.114359c-1.022625,1.201148 -2.12774,2.319123 -3.231258,3.432798c-1.101008,1.111095 -2.203613,2.203885 -3.357675,3.251219c-1.20084,1.089719 -2.192774,2.439028 -3.460816,3.440169c-0.146611,0.115729 -0.004564,0.382446 0.143987,0.26512l0,0z"/>
    </g>
   </g>
   <g stroke="null" id="svg_19">
    <g stroke="null" id="svg_20">
     <path stroke="null" id="svg_21" fill="#2F353A" d="m12.587706,24.286055c0.468356,-0.37704 0.825585,-0.913422 1.220693,-1.374372c0.555296,-0.647811 1.153719,-1.251764 1.758874,-1.844905c1.273176,-1.247955 2.555251,-2.457334 3.724373,-3.822246c1.081498,-1.262698 2.104351,-2.581662 3.217111,-3.813278c0.568303,-0.629015 1.167068,-1.224244 1.793217,-1.785812c0.326537,-0.292885 0.568759,-0.675699 0.875786,-0.992786c0.13292,-0.137351 -0.068913,-0.354189 -0.201718,-0.217207c-0.255571,0.263891 -0.483531,0.561076 -0.713658,0.850521c-0.255799,0.321879 -0.646229,0.583436 -0.940363,0.869686c-0.299839,0.291902 -0.588497,0.596827 -0.874303,0.904577c-1.127478,1.21417 -2.150103,2.536452 -3.22156,3.806521c-1.113444,1.319948 -2.327291,2.50365 -3.559963,3.690915c-0.607095,0.584787 -1.201981,1.183088 -1.771425,1.81026c-0.481819,0.530854 -0.897692,1.207045 -1.45082,1.652515c-0.145698,0.117572 -0.003651,0.384411 0.143759,0.265611l0,0z"/>
    </g>
   </g>
   <g stroke="null" id="svg_22">
    <g stroke="null" id="svg_23">
     <path stroke="null" id="svg_24" fill="#2F353A" d="m13.772117,26.600509c2.308465,-2.001053 4.25936,-4.426198 6.364054,-6.661903c2.234647,-2.373793 4.429018,-4.752623 6.515913,-7.279246c0.121738,-0.147425 -0.079181,-0.365492 -0.201718,-0.217207c-2.03772,2.467162 -4.17185,4.80029 -6.359033,7.113024c-2.161284,2.285338 -4.155763,4.777931 -6.520933,6.828125c-0.143302,0.124206 0.059899,0.340184 0.201718,0.217207l0,0z"/>
    </g>
   </g>
   <g stroke="null" id="svg_25">
    <g stroke="null" id="svg_26">
     <path stroke="null" id="svg_27" fill="#2F353A" d="m21.837199,8.065588c0.477027,-0.382077 0.771732,-0.925954 1.145619,-1.411351c0.11649,-0.151234 -0.084087,-0.369792 -0.201718,-0.217207c-0.354376,0.46009 -0.63596,1.001386 -1.087887,1.363438c-0.145698,0.116712 -0.003765,0.383551 0.143987,0.26512l0,0z"/>
    </g>
   </g>
   <g stroke="null" id="svg_28">
    <g stroke="null" id="svg_29">
     <path stroke="null" id="svg_30" fill="#2F353A" d="m22.461864,8.455037c0.338974,-0.518691 0.78645,-0.934799 1.151894,-1.430148c0.113067,-0.153322 -0.087282,-0.372249 -0.201718,-0.217207c-0.380846,0.516111 -0.843155,0.951507 -1.196391,1.492312c-0.106107,0.162414 0.141363,0.315613 0.246215,0.155042l0,0z"/>
    </g>
   </g>
   <g stroke="null" id="svg_31">
    <g stroke="null" id="svg_32">
     <path stroke="null" id="svg_33" fill="#2F353A" d="m23.145516,8.775441c0.352437,-0.516234 0.735222,-0.993401 1.196276,-1.400786c0.142275,-0.12568 -0.060698,-0.341781 -0.201718,-0.217207c-0.479994,0.424216 -0.874303,0.925954 -1.240887,1.46295c-0.109188,0.159834 0.138624,0.312787 0.246329,0.155042l0,0z"/>
    </g>
   </g>
   <g stroke="null" id="svg_34">
    <g stroke="null" id="svg_35">
     <path stroke="null" id="svg_36" fill="#2F353A" d="m23.542792,9.326566c0.463222,-0.553213 1.079672,-0.915757 1.474095,-1.540226c0.103826,-0.164256 -0.14353,-0.317701 -0.246215,-0.155042c-0.378336,0.598915 -0.984404,0.946347 -1.429485,1.478061c-0.122879,0.146811 0.078269,0.364755 0.201604,0.217207l0,0z"/>
    </g>
   </g>
   <g stroke="null" id="svg_37">
    <g stroke="null" id="svg_38">
     <path stroke="null" id="svg_39" fill="#2F353A" d="m24.240363,9.772896c0.370692,-0.533802 0.834826,-0.980992 1.263136,-1.459142c0.127671,-0.142511 -0.073705,-0.359963 -0.201718,-0.217207c-0.446108,0.498052 -0.921652,0.965144 -1.307746,1.521306c-0.110215,0.158851 0.137597,0.311682 0.246329,0.155042l0,0z"/>
    </g>
   </g>
   <g stroke="null" id="svg_40">
    <g stroke="null" id="svg_41">
     <path stroke="null" id="svg_42" fill="#2F353A" d="m24.771242,10.258662c0.528141,-0.361315 0.890618,-0.996472 1.252068,-1.531012c0.108503,-0.160448 -0.139195,-0.313402 -0.246215,-0.155042c-0.331215,0.489698 -0.665511,1.089473 -1.149726,1.420811c-0.154826,0.1059 -0.01198,0.37188 0.143873,0.265243l0,0z"/>
    </g>
   </g>
   <g stroke="null" id="svg_43">
    <g stroke="null" id="svg_44">
     <path stroke="null" id="svg_45" fill="#2F353A" d="m25.371377,10.791604c0.402866,-0.511074 0.854451,-0.974358 1.257431,-1.485433c0.118316,-0.150005 -0.08249,-0.36844 -0.201718,-0.217207c-0.40298,0.511074 -0.854451,0.974358 -1.257431,1.485433c-0.118201,0.150005 0.082604,0.36844 0.201718,0.217207l0,0z"/>
    </g>
   </g>
   <g stroke="null" id="svg_46">
    <g stroke="null" id="svg_47">
     <path stroke="null" id="svg_48" fill="#2F353A" d="m25.895411,11.235846c0.316269,-0.499895 0.664484,-0.986767 1.102947,-1.369949c0.142846,-0.124943 -0.060242,-0.340798 -0.201718,-0.217207c-0.45649,0.399031 -0.818283,0.911703 -1.147558,1.432114c-0.103826,0.164256 0.14353,0.317701 0.246329,0.155042l0,0z"/>
    </g>
   </g>
   <g stroke="null" id="svg_49">
    <g stroke="null" id="svg_50">
     <path stroke="null" id="svg_51" fill="#2F353A" d="m26.135694,11.708344c0.493685,-0.363403 0.990793,-0.787251 1.282874,-1.360981c0.088423,-0.173716 -0.157792,-0.328636 -0.246215,-0.155042c-0.268463,0.526923 -0.727236,0.916985 -1.180646,1.250781c-0.150832,0.11106 -0.008329,0.377409 0.143987,0.265243l0,0z"/>
    </g>
   </g>
   <g stroke="null" id="svg_52">
    <g stroke="null" id="svg_53">
     <path stroke="null" id="svg_54" fill="#2F353A" d="m26.670795,12.189933c0.403893,-0.449033 0.789417,-0.918705 1.153263,-1.405823c0.114094,-0.152708 -0.086369,-0.371512 -0.201718,-0.217207c-0.363846,0.487118 -0.74937,0.956667 -1.153263,1.405823c-0.127899,0.142388 0.073591,0.359718 0.201718,0.217207l0,0z"/>
    </g>
   </g>
   <g stroke="null" id="svg_55">
    <g stroke="null" id="svg_56">
     <path stroke="null" id="svg_57" fill="#2F353A" d="m27.022661,12.705185c0.371148,-0.408614 0.710464,-1.02264 1.211679,-1.255818c0.168517,-0.078381 0.023047,-0.342887 -0.143987,-0.26512c-0.527913,0.245586 -0.879665,0.874846 -1.269411,1.303854c-0.128584,0.141528 0.072906,0.358858 0.201718,0.217084l0,0z"/>
    </g>
   </g>
   <g stroke="null" id="svg_58">
    <g stroke="null" id="svg_59">
     <path stroke="null" id="svg_60" fill="#2F353A" d="m27.413091,13.343659c0.362477,-0.517708 0.85639,-0.915142 1.140028,-1.496858c0.085456,-0.17519 -0.160644,-0.330355 -0.246215,-0.155042c-0.281812,0.577661 -0.779034,0.981115 -1.140028,1.496858c-0.110899,0.158236 0.137027,0.311067 0.246215,0.155042l0,0z"/>
    </g>
   </g>
   <g stroke="null" id="svg_61">
    <g stroke="null" id="svg_62">
     <path stroke="null" id="svg_63" fill="#2F353A" d="m4.992007,28.228207c0.402638,-0.060567 1.019659,0.332198 1.305464,0.611938c0.449531,0.439819 0.536014,1.116378 0.624209,1.725122c0.028295,0.195339 0.303148,0.112043 0.275081,-0.081575c-0.105879,-0.730861 -0.246785,-1.490347 -0.820793,-1.972059c-0.362477,-0.304188 -0.984061,-0.651251 -1.459834,-0.579627c-0.181524,0.027397 -0.10394,0.323353 0.075873,0.296202l0,0z"/>
    </g>
   </g>
   <g stroke="null" id="svg_64">
    <g stroke="null" id="svg_65">
     <path stroke="null" id="svg_66" fill="#2F353A" d="m4.089751,29.77003c0.07804,0.538839 0.155967,1.077556 0.233893,1.616273c0.08694,-0.039313 0.173765,-0.078873 0.260705,-0.118309c-0.085114,-0.186862 -0.186316,-0.353944 -0.291054,-0.528643c-0.074047,-0.123592 -0.26949,-0.081575 -0.265725,0.077521c0.005248,0.223104 0.010953,0.434659 -0.012208,0.656657c0.081121,-0.036242 0.162242,-0.072361 0.243477,-0.108603c-0.116718,-0.120397 -0.232181,-0.235512 -0.339088,-0.366475c-0.090705,-0.111183 -0.292195,0.00602 -0.238343,0.149391c0.062752,0.167328 0.127215,0.312173 0.219403,0.464144c0.052597,0.086735 0.200007,0.112535 0.246215,0c0.18141,-0.44117 0.157792,-0.855435 0.055222,-1.318596c-0.08694,0.039313 -0.173765,0.078873 -0.260705,0.118309c0.170799,0.30861 0.296188,0.634912 0.417128,0.968953c0.05602,0.154797 0.279759,0.142757 0.280215,-0.040788c0.001141,-0.543385 -0.206054,-1.013426 -0.362249,-1.520938c-0.079524,0.049756 -0.158933,0.099635 -0.238343,0.149391c0.360537,0.419548 0.534074,0.928165 0.685934,1.466636c0.049517,0.175559 0.262645,0.125434 0.280215,-0.040788c0.071195,-0.674348 -0.313302,-1.186159 -0.475658,-1.810014c-0.079524,0.049756 -0.158933,0.099635 -0.238343,0.149391c0.42192,0.417828 0.527343,1.023746 0.737162,1.573519c0.057618,0.150988 0.281926,0.14546 0.280215,-0.040788c-0.007074,-0.741181 -0.433672,-1.294148 -0.642464,-1.97427c-0.079524,0.049756 -0.158933,0.099635 -0.238343,0.149391c0.395564,0.445224 0.58439,0.996841 0.772189,1.567622c0.062295,0.189441 0.30349,0.112166 0.275081,-0.081575c-0.092074,-0.627049 -0.449302,-1.113307 -0.639611,-1.702271c-0.079524,0.049756 -0.158933,0.099635 -0.238343,0.149391c0.481021,0.459967 0.65547,1.124855 0.912981,1.737161c0.071879,0.171136 0.284437,0.039436 0.260705,-0.118309c-0.109644,-0.728772 -0.579712,-1.266875 -0.817484,-1.942082c-0.079524,0.049756 -0.158933,0.099635 -0.238343,0.149391c0.578115,0.578767 0.733625,1.449559 1.117894,2.164817c0.078839,0.146811 0.321859,0.046685 0.260705,-0.118309c-0.292423,-0.788357 -0.849773,-1.426094 -1.075793,-2.245164c-0.079524,0.049756 -0.158933,0.099635 -0.238343,0.149391c0.624209,0.538471 0.868256,1.368598 1.316532,2.054617c0.087396,0.133788 0.317638,0.056267 0.260705,-0.118309c-0.266067,-0.815385 -0.828437,-1.449559 -1.154632,-2.232633c-0.074618,0.062041 -0.149349,0.124083 -0.223967,0.186124c0.566933,0.513409 0.984632,1.172768 1.359089,1.854733c0.074618,-0.062041 0.149349,-0.124083 0.223967,-0.186124c-0.627175,-0.586261 -1.197646,-1.316876 -1.433934,-2.18816c-0.079524,0.049756 -0.158933,0.099635 -0.238343,0.149391c0.54286,0.687248 1.054572,1.398697 1.542324,2.132015c0.074618,-0.062041 0.149349,-0.124083 0.223967,-0.186124c-0.541376,-0.613535 -0.951659,-1.32437 -1.351444,-2.048597c-0.053624,0.075187 -0.107363,0.150374 -0.161101,0.225561c0.957135,0.227526 1.449908,1.577328 1.70468,2.477605c-0.006503,-0.023097 -0.85582,-0.100741 -1.000263,-0.1274c-0.291282,-0.05381 -0.582222,-0.125066 -0.877041,-0.152339c-0.183349,-0.017077 -0.181866,0.290305 0,0.307136c0.264128,0.024448 2.181707,0.598178 2.176687,0.020885c-0.004564,-0.521271 -0.406859,-1.217979 -0.643947,-1.650303c-0.290141,-0.52938 -0.707954,-1.03468 -1.284357,-1.171662c-0.118886,-0.028257 -0.227846,0.104672 -0.161101,0.225561c0.41245,0.7472 0.837793,1.478184 1.395941,2.110762c0.109759,0.124574 0.319463,-0.042508 0.223967,-0.186124c-0.5019,-0.75494 -1.028102,-1.48703 -1.58682,-2.19418c-0.094584,-0.119783 -0.276792,0.00774 -0.238343,0.149391c0.249638,0.919934 0.844182,1.703622 1.507411,2.323668c0.118886,0.11106 0.30988,-0.029608 0.223967,-0.186124c-0.385752,-0.702481 -0.819538,-1.387886 -1.403699,-1.916897c-0.127557,-0.115483 -0.290598,0.026045 -0.223967,0.186124c0.315698,0.757643 0.868712,1.371301 1.125766,2.159166c0.08694,-0.039436 0.173765,-0.078873 0.260705,-0.118309c-0.46288,-0.708747 -0.716169,-1.560497 -1.361028,-2.116659c-0.103712,-0.089561 -0.282611,-0.010934 -0.238343,0.149391c0.227389,0.823739 0.782685,1.45521 1.075793,2.245164c0.08694,-0.039436 0.173765,-0.078873 0.260705,-0.118309c-0.398074,-0.741058 -0.562712,-1.626592 -1.162505,-2.226982c-0.096752,-0.096809 -0.292081,-0.003194 -0.238343,0.149391c0.236061,0.670539 0.708981,1.22105 0.817484,1.942082c0.08694,-0.039436 0.173765,-0.078873 0.260705,-0.118309c-0.268349,-0.637983 -0.456719,-1.320439 -0.957592,-1.799326c-0.099148,-0.094721 -0.288544,-0.005774 -0.238343,0.149391c0.189054,0.58491 0.54845,1.08075 0.639611,1.702271c0.091732,-0.027274 0.183349,-0.054302 0.275081,-0.081575c-0.204571,-0.622012 -0.415417,-1.218961 -0.845551,-1.703131c-0.096638,-0.108849 -0.283524,0.002211 -0.238343,0.149391c0.196926,0.641546 0.625806,1.19525 0.632309,1.892695c0.093329,-0.013514 0.186772,-0.027274 0.280215,-0.040788c-0.230128,-0.602724 -0.3489,-1.251764 -0.810524,-1.709028c-0.102799,-0.101846 -0.278161,-0.003317 -0.238343,0.149391c0.153,0.58749 0.532477,1.094387 0.465618,1.728439c0.093329,-0.013514 0.186772,-0.027274 0.280215,-0.040788c-0.16692,-0.591544 -0.364188,-1.1423 -0.75941,-1.602144c-0.095497,-0.111183 -0.283182,0.003563 -0.238343,0.149391c0.146839,0.476798 0.353235,0.927059 0.352094,1.439362c0.093329,-0.013514 0.186772,-0.027274 0.280215,-0.040788c-0.130295,-0.359841 -0.26196,-0.709853 -0.445994,-1.042297c-0.084087,-0.151971 -0.298014,-0.050247 -0.260705,0.118309c0.084316,0.380603 0.128356,0.705799 -0.026356,1.082102c0.082034,0 0.164181,0 0.246215,0c-0.081121,-0.119783 -0.144671,-0.250009 -0.190537,-0.3908c-0.079524,0.049756 -0.158933,0.099635 -0.238343,0.149391c0.106906,0.130963 0.222255,0.246077 0.339088,0.366475c0.096866,0.099881 0.230014,0.020517 0.243477,-0.108603c0.023161,-0.221998 0.017456,-0.43343 0.012208,-0.656657c-0.088537,0.025799 -0.177188,0.051722 -0.265725,0.077521c0.104624,0.174699 0.20594,0.341781 0.291054,0.528643c0.077014,0.169048 0.283638,0.040296 0.260705,-0.118309c-0.07804,-0.538839 -0.155967,-1.077556 -0.233893,-1.616273c-0.029436,-0.19583 -0.304289,-0.112535 -0.276222,0.081084l0,0z"/>
    </g>
   </g>
   <g stroke="null" id="svg_67">
    <g stroke="null" id="svg_68">
     <path stroke="null" id="svg_69" fill="#2F353A" d="m5.533612,28.725153c0.294933,0.204921 0.586786,0.42999 0.699397,0.805679c0.05853,-0.063024 0.116946,-0.125803 0.175477,-0.188827c-0.079524,-0.032311 -0.130638,-0.092755 -0.179812,-0.164748c-0.107591,-0.157868 -0.355289,-0.004914 -0.246215,0.155042c0.096866,0.14202 0.195215,0.243129 0.350155,0.305785c0.10143,0.041156 0.207081,-0.083541 0.175477,-0.188827c-0.137141,-0.457387 -0.468927,-0.737986 -0.830491,-0.989224c-0.155054,-0.107743 -0.2979,0.158236 -0.143987,0.26512l0,0z"/>
    </g>
   </g>
   <g stroke="null" id="svg_70">
    <g stroke="null" id="svg_71">
     <path stroke="null" id="svg_72" fill="#2F353A" d="m5.622035,29.361662c0.106564,0.185019 0.199893,0.376549 0.285121,0.573853c0.061953,0.143617 0.265725,0.066833 0.265725,-0.077521c0,-0.220155 -0.099946,-0.408245 -0.224765,-0.575327c-0.105537,-0.14116 -0.296873,0.038699 -0.223967,0.186124c0.038107,0.077275 0.081349,0.151357 0.119571,0.228632c0.086369,0.174945 0.332584,0.01978 0.246215,-0.155042c-0.038107,-0.077275 -0.081349,-0.151357 -0.119571,-0.228632c-0.074618,0.062041 -0.149349,0.124083 -0.223967,0.186124c0.076443,0.102215 0.141134,0.223841 0.141134,0.358121c0.088537,-0.025799 0.177188,-0.051722 0.265725,-0.077521c-0.085114,-0.197304 -0.178557,-0.388957 -0.285121,-0.573853c-0.096524,-0.167819 -0.343423,-0.01376 -0.246101,0.155042l0,0z"/>
    </g>
   </g>
   <path stroke="null" id="svg_73" fill="#2F353A" d="m6.44819,28.749601c-0.015631,-0.010688 -0.031262,-0.019288 -0.047007,-0.026782c0.003651,-0.075187 -0.018711,-0.153691 -0.059557,-0.223841c-0.068571,-0.117817 -0.238,-0.17175 -0.353463,-0.105655c-0.035711,0.020271 -0.064235,0.045333 -0.088537,0.072976c-0.00445,-0.00258 -0.008671,-0.005774 -0.013235,-0.008231c-0.06355,-0.063884 -0.136,-0.114377 -0.23298,-0.141528c-0.078725,-0.022114 -0.163383,-0.005528 -0.234806,0.034891c-0.098349,-0.023834 -0.194759,0.097424 -0.161101,0.204675c-0.017342,0.076293 -0.000456,0.160939 0.070396,0.240303c0.007987,0.008846 0.016886,0.016094 0.024873,0.024694c0.095611,0.20099 0.198638,0.395223 0.31547,0.581224c0.018369,0.110815 0.036966,0.221752 0.05351,0.332935c-0.051342,0.024202 -0.087967,0.07789 -0.072792,0.155779c0.017685,0.090789 0.045524,0.178507 0.072107,0.266471c-0.27143,0.025185 -0.291168,0.533065 0.027268,0.617712c0.432302,0.114746 1.174713,0.227895 1.256062,-0.399277c0.071879,-0.552108 -0.095154,-1.309014 -0.556209,-1.626347z"/>
   <g stroke="null" id="svg_74">
    <g stroke="null" id="svg_75">
     <path stroke="null" id="svg_76" fill="#2F353A" d="m6.983177,28.638295c0.640981,0.427165 0.838249,1.497595 0.825242,2.250201c-0.001711,0.099144 0.140906,0.098898 0.142618,0c0.014034,-0.812068 -0.206396,-1.923286 -0.895981,-2.382884c-0.078383,-0.052213 -0.14992,0.080592 -0.071879,0.132683l0,0z"/>
    </g>
   </g>
   <g stroke="null" id="svg_77">
    <g stroke="null" id="svg_78">
     <path stroke="null" id="svg_79" fill="#2F353A" d="m7.398936,28.568514c0.562598,0.579013 0.831404,1.35275 0.949833,2.166783c0.014148,0.097669 0.151631,0.056022 0.137483,-0.040788c-0.121967,-0.839341 -0.407316,-1.638632 -0.986457,-2.234599c-0.066403,-0.068553 -0.167376,0.039928 -0.100859,0.108603l0,0z"/>
    </g>
   </g>
   <g stroke="null" id="svg_80">
    <g stroke="null" id="svg_81">
     <path stroke="null" id="svg_82" fill="#2F353A" d="m7.829185,28.452662c0.427511,0.583558 0.693236,1.224981 0.732142,1.972796c0.005134,0.098529 0.147752,0.099021 0.142618,0c-0.041188,-0.792288 -0.320833,-1.462705 -0.7739,-2.081399c-0.056933,-0.077767 -0.157108,0.031696 -0.100859,0.108603l0,0z"/>
    </g>
   </g>
   <g stroke="null" id="svg_83">
    <g stroke="null" id="svg_84">
     <path stroke="null" id="svg_85" fill="#2F353A" d="m8.178883,28.249952c0.509316,0.52938 0.616564,1.283583 0.869169,1.963951c0.033658,0.090789 0.171712,0.05123 0.137483,-0.040788c-0.262645,-0.707764 -0.376625,-1.48187 -0.905793,-2.031889c-0.066175,-0.068676 -0.167148,0.039805 -0.100859,0.108726l0,0z"/>
    </g>
   </g>
   <g stroke="null" id="svg_86">
    <g stroke="null" id="svg_87">
     <path stroke="null" id="svg_88" fill="#2F353A" d="m8.555393,28.018249c0.582336,0.593264 0.90043,1.336779 0.893471,2.204254c-0.000799,0.099144 0.141819,0.099021 0.142618,0c0.007302,-0.905314 -0.327336,-1.693548 -0.935229,-2.31298c-0.066745,-0.067816 -0.167832,0.040542 -0.100859,0.108726l0,0z"/>
    </g>
   </g>
   <g stroke="null" id="svg_89">
    <g stroke="null" id="svg_90">
     <path stroke="null" id="svg_91" fill="#2F353A" d="m9.066307,27.815539c0.5019,0.617835 0.735793,1.34071 0.869055,2.137789c0.016315,0.097424 0.153685,0.056022 0.137483,-0.040788c-0.138282,-0.82681 -0.386551,-1.566517 -0.905679,-2.205728c-0.060698,-0.074573 -0.161101,0.034399 -0.100859,0.108726l0,0z"/>
    </g>
   </g>
   <g stroke="null" id="svg_92">
    <g stroke="null" id="svg_93">
     <path stroke="null" id="svg_94" fill="#2F353A" d="m9.389079,27.583959c0.59694,0.621152 0.829578,1.545386 1.084236,2.369493c0.028866,0.093492 0.166577,0.053442 0.137483,-0.040788c-0.26196,-0.847818 -0.506464,-1.798097 -1.120974,-2.437431c-0.06606,-0.068676 -0.167034,0.039805 -0.100745,0.108726l0,0z"/>
    </g>
   </g>
   <g stroke="null" id="svg_95">
    <g stroke="null" id="svg_96">
     <path stroke="null" id="svg_97" fill="#2F353A" d="m9.827885,27.289354c0.117631,0.379866 0.456719,0.674839 0.649081,1.025711c0.2639,0.481221 0.460256,1.004949 0.675779,1.512092c0.038222,0.089929 0.161101,0.011917 0.123108,-0.077521c-0.194987,-0.458738 -0.381645,-0.921162 -0.600934,-1.36737c-0.097665,-0.198778 -0.210161,-0.388097 -0.326195,-0.574836c-0.117289,-0.188827 -0.316269,-0.34215 -0.38347,-0.558865c-0.028866,-0.093492 -0.166577,-0.053442 -0.137369,0.040788l0,0z"/>
    </g>
   </g>
   <g stroke="null" id="svg_98">
    <g stroke="null" id="svg_99">
     <path stroke="null" id="svg_100" fill="#2F353A" d="m10.265435,27.076079c0.058416,0.117203 0.162128,0.20701 0.248155,0.299765c0.24553,0.264874 0.410967,0.549651 0.539779,0.898189c0.209591,0.567342 0.276678,1.17412 0.529739,1.726719c0.040617,0.088824 0.163725,0.010934 0.123108,-0.077521c-0.270631,-0.591175 -0.351638,-1.246604 -0.576631,-1.855839c-0.167376,-0.452964 -0.540806,-0.666854 -0.741041,-1.06871c-0.04347,-0.087349 -0.166577,-0.009828 -0.123108,0.077398l0,0z"/>
    </g>
   </g>
   <g stroke="null" id="svg_101">
    <g stroke="null" id="svg_102">
     <path stroke="null" id="svg_103" fill="#2F353A" d="m10.634644,26.768205c0.153685,0.427533 0.504182,0.728281 0.71286,1.127558c0.26139,0.500263 0.374799,1.086647 0.585189,1.612833c0.036282,0.090667 0.159161,0.012531 0.123108,-0.077521c-0.191222,-0.478272 -0.320604,-0.980624 -0.514336,-1.45779c-0.188141,-0.463653 -0.603558,-0.784671 -0.769336,-1.245867c-0.032859,-0.091404 -0.170799,-0.051722 -0.137483,0.040788l0,0z"/>
    </g>
   </g>
   <g stroke="null" id="svg_104">
    <g stroke="null" id="svg_105">
     <path stroke="null" id="svg_106" fill="#2F353A" d="m11.056336,26.715255c0.742638,0.839956 1.176082,1.947365 1.602451,2.995927c0.036852,0.090544 0.159618,0.012285 0.123108,-0.077521c-0.43196,-1.062322 -0.872363,-2.175997 -1.6247,-3.027133c-0.06355,-0.071747 -0.164295,0.036979 -0.100859,0.108726l0,0z"/>
    </g>
   </g>
   <g stroke="null" id="svg_107">
    <g stroke="null" id="svg_108">
     <path stroke="null" id="svg_109" fill="#2F353A" d="m11.60992,26.554807c0.170342,0.386131 0.528256,0.709976 0.738645,1.081242c0.331101,0.584418 0.568189,1.230387 0.848061,1.843553c0.040503,0.088947 0.163497,0.011057 0.123108,-0.077521c-0.281014,-0.615992 -0.532249,-1.246604 -0.848061,-1.843553c-0.198752,-0.375443 -0.570699,-0.700639 -0.738645,-1.081242c-0.039362,-0.089315 -0.162356,-0.011303 -0.123108,0.077521l0,0z"/>
    </g>
   </g>
   <g stroke="null" id="svg_110">
    <g stroke="null" id="svg_111">
     <path stroke="null" id="svg_112" fill="#2F353A" d="m11.98643,26.207252c0.560316,1.054828 1.303867,1.98029 1.686995,3.13807c0.030691,0.092632 0.168517,0.052705 0.137483,-0.040788c-0.387349,-1.170557 -1.134666,-2.108059 -1.701371,-3.174804c-0.045638,-0.085875 -0.168859,-0.0086 -0.123108,0.077521l0,0z"/>
    </g>
   </g>
   <g stroke="null" id="svg_113">
    <g stroke="null" id="svg_114">
     <path stroke="null" id="svg_115" fill="#2F353A" d="m12.624673,25.609934c0.213356,0.546211 0.59192,0.95765 0.789075,1.521183c0.206396,0.589455 0.333611,1.199673 0.589638,1.769226c0.040047,0.089192 0.16304,0.01118 0.123108,-0.077521c-0.249752,-0.555548 -0.389745,-1.151023 -0.575262,-1.732739c-0.181866,-0.570167 -0.575833,-0.975218 -0.789189,-1.52106c-0.035027,-0.089807 -0.173081,-0.050247 -0.137369,0.040911l0,0z"/>
    </g>
   </g>
   <g stroke="null" id="svg_116">
    <g stroke="null" id="svg_117">
     <path stroke="null" id="svg_118" fill="#2F353A" d="m13.001183,25.204392c0.087967,0.495472 0.427625,0.868458 0.721987,1.23997c0.457289,0.577293 0.633222,1.288374 0.979384,1.934834c0.045866,0.085752 0.169202,0.008354 0.123108,-0.077521c-0.295047,-0.550879 -0.452155,-1.17412 -0.79786,-1.694162c-0.311477,-0.46869 -0.783712,-0.85089 -0.889135,-1.443908c-0.017228,-0.097178 -0.154712,-0.055899 -0.137483,0.040788l0,0z"/>
    </g>
   </g>
   <g stroke="null" id="svg_119">
    <g stroke="null" id="svg_120">
     <path stroke="null" id="svg_121" fill="#2F353A" d="m13.315284,25.151442c0.724155,0.806785 1.182357,1.797851 1.736854,2.735476c0.049175,0.083295 0.172738,0.006266 0.123108,-0.077521c-0.561001,-0.948805 -1.026847,-1.950682 -1.759103,-2.766681c-0.064007,-0.071133 -0.164752,0.037471 -0.100859,0.108726l0,0z"/>
    </g>
   </g>
   <g stroke="null" id="svg_122">
    <g stroke="null" id="svg_123">
     <path stroke="null" id="svg_124" fill="#2F353A" d="m13.61113,24.948855c0.768195,0.641669 1.313109,1.574011 1.871371,2.416792c0.052826,0.079855 0.176618,0.003317 0.123108,-0.077521c-0.563397,-0.850521 -1.11835,-1.800308 -1.893619,-2.447997c-0.071765,-0.05983 -0.173423,0.048036 -0.100859,0.108726l0,0z"/>
    </g>
   </g>
   <g stroke="null" id="svg_125">
    <g stroke="null" id="svg_126">
     <path stroke="null" id="svg_127" fill="#2F353A" d="m13.853124,24.514564c0.408799,0.419916 0.866887,0.76698 1.234384,1.233335c0.389175,0.493875 0.662887,1.073379 1.078303,1.546491c0.063322,0.071993 0.163953,-0.036733 0.100859,-0.108726c-0.378222,-0.430605 -0.640638,-0.944382 -0.9779,-1.40828c-0.386779,-0.53196 -0.8848,-0.909123 -1.334787,-1.371547c-0.066517,-0.068307 -0.16749,0.040173 -0.100859,0.108726l0,0z"/>
    </g>
   </g>
   <g stroke="null" id="svg_128">
    <g stroke="null" id="svg_129">
     <path stroke="null" id="svg_130" fill="#2F353A" d="m14.244124,24.236913c0.82684,0.677911 1.489955,1.541946 2.217647,2.333497c0.064805,0.070396 0.165551,-0.038331 0.100859,-0.108726c-0.736934,-0.801502 -1.40929,-1.671066 -2.246512,-2.357453c-0.073248,-0.059953 -0.144215,0.07359 -0.071993,0.132683l0,0z"/>
    </g>
   </g>
   <g stroke="null" id="svg_131">
    <g stroke="null" id="svg_132">
     <path stroke="null" id="svg_133" fill="#2F353A" d="m14.648816,23.745987c0.622611,0.96281 1.421042,1.768121 2.189351,2.592719c0.065262,0.069904 0.166007,-0.038576 0.100859,-0.108726c-0.75941,-0.814893 -1.551794,-1.609884 -2.167103,-2.561637c-0.052141,-0.08047 -0.175819,-0.003808 -0.123108,0.077644l0,0z"/>
    </g>
   </g>
   <g stroke="null" id="svg_134">
    <g stroke="null" id="svg_135">
     <path stroke="null" id="svg_136" fill="#2F353A" d="m15.117058,23.385041c0.737846,0.818702 1.261082,1.86493 2.138922,2.531292c0.075416,0.057127 0.146611,-0.076047 0.071993,-0.132683c-0.865632,-0.657148 -1.382136,-1.699691 -2.110056,-2.507336c-0.064121,-0.07101 -0.16498,0.037593 -0.100859,0.108726l0,0z"/>
    </g>
   </g>
   <g stroke="null" id="svg_137">
    <g stroke="null" id="svg_138">
     <path stroke="null" id="svg_139" fill="#2F353A" d="m15.482501,23.022006c0.490148,0.955439 1.381565,1.758661 2.203841,2.373056c0.075758,0.056513 0.146953,-0.076661 0.071993,-0.132683c-0.797404,-0.595721 -1.677525,-1.391572 -2.152727,-2.317894c-0.044497,-0.086735 -0.167718,-0.009214 -0.123108,0.077521l0,0z"/>
    </g>
   </g>
   <g stroke="null" id="svg_140">
    <g stroke="null" id="svg_141">
     <path stroke="null" id="svg_142" fill="#2F353A" d="m15.789414,22.661183c0.687075,0.688476 1.327941,1.426954 1.990029,2.142827c0.06492,0.07015 0.165779,-0.038453 0.100973,-0.108726c-0.662202,-0.71575 -1.302954,-1.454228 -1.990143,-2.142827c-0.067316,-0.067324 -0.168403,0.041033 -0.100859,0.108726l0,0z"/>
    </g>
   </g>
   <g stroke="null" id="svg_143">
    <g stroke="null" id="svg_144">
     <path stroke="null" id="svg_145" fill="#2F353A" d="m16.273515,22.197899c0.700766,0.751378 1.42378,1.478184 2.124432,2.229685c0.065262,0.069781 0.166121,-0.038699 0.100973,-0.108726c-0.700766,-0.751378 -1.42378,-1.478184 -2.124546,-2.229685c-0.065262,-0.069781 -0.166121,0.038822 -0.100859,0.108726l0,0z"/>
    </g>
   </g>
   <g stroke="null" id="svg_146">
    <g stroke="null" id="svg_147">
     <path stroke="null" id="svg_148" fill="#2F353A" d="m16.703764,21.792602c0.582564,0.627295 1.165357,1.254712 1.747921,1.882129c0.065148,0.070027 0.166007,-0.038453 0.100973,-0.108726c-0.582678,-0.627295 -1.165471,-1.254712 -1.748035,-1.882129c-0.065148,-0.07015 -0.166007,0.038453 -0.100859,0.108726l0,0z"/>
    </g>
   </g>
   <g stroke="null" id="svg_149">
    <g stroke="null" id="svg_150">
     <path stroke="null" id="svg_151" fill="#2F353A" d="m17.134013,21.271331c0.63094,0.805679 1.338438,1.572782 2.138922,2.183614c0.075188,0.057373 0.146269,-0.075924 0.071993,-0.132683c-0.789531,-0.602478 -1.487673,-1.36479 -2.110056,-2.159658c-0.059443,-0.075678 -0.159618,0.033539 -0.100859,0.108726l0,0z"/>
    </g>
   </g>
   <g stroke="null" id="svg_152">
    <g stroke="null" id="svg_153">
     <path stroke="null" id="svg_154" fill="#2F353A" d="m17.444235,20.906945c0.78337,0.433799 1.315847,1.236407 1.921801,1.899083c0.064577,0.070518 0.165436,-0.038085 0.100973,-0.108726c-0.615081,-0.672382 -1.155431,-1.482484 -1.950781,-1.92304c-0.081577,-0.04521 -0.153799,0.087227 -0.071993,0.132683l0,0z"/>
    </g>
   </g>
   <g stroke="null" id="svg_155">
    <g stroke="null" id="svg_156">
     <path stroke="null" id="svg_157" fill="#2F353A" d="m17.686342,20.530396c0.793296,0.645846 1.415679,1.497349 2.232022,2.113956c0.07553,0.057004 0.146611,-0.076293 0.071993,-0.132683c-0.815659,-0.616115 -1.438612,-1.46811 -2.232022,-2.113956c-0.073477,-0.059707 -0.144329,0.073835 -0.071993,0.132683l0,0z"/>
    </g>
   </g>
   <g stroke="null" id="svg_158">
    <g stroke="null" id="svg_159">
     <path stroke="null" id="svg_160" fill="#2F353A" d="m18.009001,20.067112c0.853994,0.606409 1.479458,1.470567 2.190606,2.246761c0.064691,0.070518 0.165551,-0.038208 0.100973,-0.108726c-0.720162,-0.785777 -1.355209,-1.65706 -2.219586,-2.270718c-0.077014,-0.05467 -0.148436,0.078258 -0.071993,0.132683l0,0z"/>
    </g>
   </g>
   <g stroke="null" id="svg_161">
    <g stroke="null" id="svg_162">
     <path stroke="null" id="svg_163" fill="#2F353A" d="m18.412323,19.632699c0.817598,0.667837 1.497257,1.494524 2.217647,2.275509c0.06492,0.070273 0.165779,-0.038453 0.100973,-0.108726c-0.729632,-0.790937 -1.41876,-1.623275 -2.246512,-2.299589c-0.073362,-0.059707 -0.144329,0.073835 -0.072107,0.132806l0,0z"/>
    </g>
   </g>
   <g stroke="null" id="svg_164">
    <g stroke="null" id="svg_165">
     <path stroke="null" id="svg_166" fill="#2F353A" d="m18.855008,19.418072c0.790216,0.71747 1.415337,1.657306 2.327291,2.212731c0.080094,0.04865 0.151973,-0.08391 0.071993,-0.132683c-0.901115,-0.548668 -1.517679,-1.479658 -2.298425,-2.188651c-0.069711,-0.063393 -0.171141,0.044719 -0.100859,0.108603l0,0z"/>
    </g>
   </g>
   <g stroke="null" id="svg_167">
    <g stroke="null" id="svg_168">
     <path stroke="null" id="svg_169" fill="#2F353A" d="m19.138532,19.02457c0.717081,0.508494 1.214417,1.285426 1.90925,1.824388c0.074732,0.057987 0.145812,-0.07531 0.071993,-0.132683c-0.694947,-0.538839 -1.191256,-1.315156 -1.90925,-1.824388c-0.077128,-0.054547 -0.148436,0.078504 -0.071993,0.132683l0,0z"/>
    </g>
   </g>
   <g stroke="null" id="svg_170">
    <g stroke="null" id="svg_171">
     <path stroke="null" id="svg_172" fill="#2F353A" d="m19.527365,18.578239c0.65935,0.661448 1.248532,1.396486 1.882552,2.084962c0.064805,0.070273 0.165665,-0.038331 0.100973,-0.108726c-0.634135,-0.688476 -1.223317,-1.423391 -1.882552,-2.084839c-0.067201,-0.067447 -0.168403,0.041033 -0.100973,0.108603l0,0z"/>
    </g>
   </g>
   <g stroke="null" id="svg_173">
    <g stroke="null" id="svg_174">
     <path stroke="null" id="svg_175" fill="#2F353A" d="m19.930801,18.086085c0.677491,0.621152 1.280934,1.322896 1.882438,2.026975c0.062409,0.072976 0.16304,-0.035873 0.100973,-0.108726c-0.601618,-0.703956 -1.205062,-1.4057 -1.882438,-2.026852c-0.069711,-0.063884 -0.171027,0.044228 -0.100973,0.108603l0,0z"/>
    </g>
   </g>
   <g stroke="null" id="svg_176">
    <g stroke="null" id="svg_177">
     <path stroke="null" id="svg_178" fill="#2F353A" d="m20.307312,17.73853c0.644517,0.646583 1.206887,1.367124 1.747921,2.113956c0.056591,0.078013 0.156765,-0.031574 0.100973,-0.108726c-0.541034,-0.746709 -1.103518,-1.46725 -1.747921,-2.113833c-0.067201,-0.067447 -0.168403,0.040911 -0.100973,0.108603l0,0z"/>
    </g>
   </g>
   <g stroke="null" id="svg_179">
    <g stroke="null" id="svg_180">
     <path stroke="null" id="svg_181" fill="#2F353A" d="m20.509943,17.316156c0.823075,0.58663 1.398565,1.495015 2.110056,2.217768c0.066859,0.067816 0.167946,-0.040542 0.100973,-0.108726c-0.721417,-0.732581 -1.304438,-1.64674 -2.139036,-2.241601c-0.077014,-0.054793 -0.148322,0.078258 -0.071993,0.13256l0,0z"/>
    </g>
   </g>
   <g stroke="null" id="svg_182">
    <g stroke="null" id="svg_183">
     <path stroke="null" id="svg_184" fill="#2F353A" d="m20.979554,16.840832c0.741497,0.690442 1.454814,1.405577 2.070579,2.229685c0.057732,0.077153 0.15802,-0.032311 0.100973,-0.108726c-0.615766,-0.823984 -1.329196,-1.539243 -2.070579,-2.229562c-0.069255,-0.064376 -0.170571,0.043736 -0.100973,0.108603l0,0z"/>
    </g>
   </g>
   <g stroke="null" id="svg_185">
    <g stroke="null" id="svg_186">
     <path stroke="null" id="svg_187" fill="#2F353A" d="m21.382877,16.44991c0.734309,0.746709 1.469075,1.49305 2.258949,2.17182c0.071195,0.061181 0.172853,-0.046808 0.100973,-0.108603c-0.789987,-0.678771 -1.524753,-1.425111 -2.258949,-2.17182c-0.066859,-0.067938 -0.167832,0.040542 -0.100973,0.108603l0,0z"/>
    </g>
   </g>
   <g stroke="null" id="svg_188">
    <g stroke="null" id="svg_189">
     <path stroke="null" id="svg_190" fill="#2F353A" d="m21.740219,16.092772c0.804706,0.428148 1.291317,1.245744 1.921801,1.899083c0.066289,0.068676 0.167262,-0.039805 0.100973,-0.108603c-0.639725,-0.663045 -1.134552,-1.488873 -1.950781,-1.923163c-0.082148,-0.043736 -0.154369,0.088824 -0.071993,0.132683l0,0z"/>
    </g>
   </g>
   <g stroke="null" id="svg_191">
    <g stroke="null" id="svg_192">
     <path stroke="null" id="svg_193" fill="#2F353A" d="m21.997045,15.587349c0.204228,0.346818 0.558947,0.540191 0.86586,0.765874c0.477826,0.351486 0.838706,0.930008 1.17129,1.427691c0.053282,0.07961 0.177074,0.003071 0.123222,-0.077521c-0.295275,-0.441539 -0.605155,-0.864526 -0.959075,-1.253483c-0.324826,-0.356769 -0.823189,-0.507143 -1.077961,-0.939959c-0.049175,-0.083418 -0.172624,-0.006511 -0.123336,0.077398l0,0z"/>
    </g>
   </g>
   <g stroke="null" id="svg_194">
    <g stroke="null" id="svg_195">
     <path stroke="null" id="svg_196" fill="#2F353A" d="m22.503623,15.340289c0.822162,0.359718 1.326115,1.254221 1.924881,1.913212c0.064463,0.070887 0.165208,-0.037839 0.100973,-0.108603c-0.621813,-0.684053 -1.134095,-1.579171 -1.987975,-1.952648c-0.085228,-0.037348 -0.121967,0.111306 -0.037879,0.14804l0,0z"/>
    </g>
   </g>
   <g stroke="null" id="svg_197">
    <g stroke="null" id="svg_198">
     <path stroke="null" id="svg_199" fill="#2F353A" d="m22.889831,14.811278c0.476,0.308242 0.900773,0.677173 1.296565,1.095616c0.287973,0.304433 0.510571,0.652603 0.861524,0.880743c0.078839,0.051353 0.15049,-0.081452 0.071993,-0.13256c-0.4169,-0.27114 -0.703846,-0.730247 -1.054914,-1.087261c-0.335208,-0.340798 -0.708638,-0.633683 -1.103176,-0.889097c-0.078953,-0.051107 -0.150604,0.081698 -0.071993,0.13256l0,0z"/>
    </g>
   </g>
   <g stroke="null" id="svg_200">
    <g stroke="null" id="svg_201">
     <path stroke="null" id="svg_202" fill="#2F353A" d="m23.258697,14.299835c0.608121,0.71833 1.412371,1.205816 1.965499,1.982502c0.055107,0.077398 0.179128,0.001106 0.123222,-0.077521c-0.561571,-0.788357 -1.37084,-1.284811 -1.987747,-2.013584c-0.062181,-0.073344 -0.162698,0.035628 -0.100973,0.108603l0,0z"/>
    </g>
   </g>
   <g stroke="null" id="svg_203">
    <g stroke="null" id="svg_204">
     <path stroke="null" id="svg_205" fill="#2F353A" d="m23.716785,13.834094c0.765001,0.40112 1.358975,1.200656 1.78968,1.970462c0.047463,0.084647 0.170799,0.007617 0.123222,-0.077521c-0.443484,-0.792534 -1.053545,-1.612833 -1.840908,-2.025501c-0.082262,-0.043245 -0.154597,0.089192 -0.071993,0.13256l0,0z"/>
    </g>
   </g>
   <g stroke="null" id="svg_206">
    <g stroke="null" id="svg_207">
     <path stroke="null" id="svg_208" fill="#2F353A" d="m24.18651,13.300783c0.640296,0.68737 1.293827,1.359875 1.875593,2.106584c0.059329,0.075924 0.159504,-0.033294 0.100973,-0.108603c-0.581994,-0.746709 -1.235411,-1.419214 -1.875593,-2.106584c-0.065262,-0.069904 -0.166235,0.038699 -0.100973,0.108603l0,0z"/>
    </g>
   </g>
   <g stroke="null" id="svg_209">
    <g stroke="null" id="svg_210">
     <path stroke="null" id="svg_211" fill="#2F353A" d="m24.644598,12.878409c0.874303,0.543999 1.374491,1.507424 2.062935,2.268384c0.064235,0.07101 0.165094,-0.037593 0.100973,-0.108603c-0.697685,-0.771157 -1.205974,-1.741093 -2.091915,-2.29234c-0.079752,-0.049633 -0.151517,0.083172 -0.071993,0.13256l0,0z"/>
    </g>
   </g>
   <g stroke="null" id="svg_212">
    <g stroke="null" id="svg_213">
     <path stroke="null" id="svg_214" fill="#2F353A" d="m24.872102,12.432079c0.292081,0.369792 0.704645,0.565253 1.048753,0.868703c0.382215,0.336867 0.629799,0.828899 0.988283,1.194513c0.066745,0.068061 0.167832,-0.040419 0.100973,-0.108603c-0.361564,-0.368563 -0.626833,-0.826073 -0.988283,-1.194513c-0.324712,-0.330847 -0.753705,-0.495103 -1.048753,-0.868703c-0.059671,-0.075555 -0.160074,0.033662 -0.100973,0.108603l0,0z"/>
    </g>
   </g>
   <g stroke="null" id="svg_215">
    <g stroke="null" id="svg_216">
     <path stroke="null" id="svg_217" fill="#2F353A" d="m25.269948,12.031451c0.828209,0.503949 1.294968,1.385306 1.901606,2.138035c0.060356,0.074941 0.160873,-0.034154 0.100973,-0.108603c-0.615652,-0.763786 -1.090739,-1.65104 -1.930586,-2.162115c-0.080208,-0.04865 -0.151973,0.08391 -0.071993,0.132683l0,0z"/>
    </g>
   </g>
   <g stroke="null" id="svg_218">
    <g stroke="null" id="svg_219">
     <path stroke="null" id="svg_220" fill="#2F353A" d="m25.69917,11.367914c0.759182,0.752238 1.337639,1.655709 1.884834,2.590631c0.048946,0.083541 0.172396,0.006511 0.123222,-0.077521c-0.554041,-0.946593 -1.138545,-1.860261 -1.907083,-2.621713c-0.067772,-0.066956 -0.168745,0.041402 -0.100973,0.108603l0,0z"/>
    </g>
   </g>
   <g stroke="null" id="svg_221">
    <g stroke="null" id="svg_222">
     <path stroke="null" id="svg_223" fill="#2F353A" d="m25.935458,11.141002c0.921196,0.482695 1.442035,1.379164 2.011479,2.252781c0.052483,0.080347 0.176161,0.003808 0.123222,-0.077521c-0.582678,-0.894011 -1.120518,-1.814314 -2.062707,-2.307943c-0.082376,-0.042999 -0.154712,0.089438 -0.071993,0.132683l0,0z"/>
    </g>
   </g>
   <g stroke="null" id="svg_224">
    <g stroke="null" id="svg_225">
     <path stroke="null" id="svg_226" fill="#2F353A" d="m26.41956,10.619854c0.950746,0.515988 1.484592,1.578679 2.092143,2.469988c0.053852,0.078995 0.177759,0.002457 0.123222,-0.077521c-0.621128,-0.911211 -1.171062,-1.997367 -2.143371,-2.525027c-0.08192,-0.044473 -0.154141,0.087964 -0.071993,0.13256l0,0z"/>
    </g>
   </g>
   <g stroke="null" id="svg_227">
    <g stroke="null" id="svg_228">
     <path stroke="null" id="svg_229" fill="#2F353A" d="m26.843077,10.207186c0.925531,0.57373 1.381223,1.636544 2.123405,2.420355c0.065718,0.06929 0.166691,-0.039191 0.100973,-0.108603c-0.75245,-0.794622 -1.213733,-1.862473 -2.152385,-2.444311c-0.079866,-0.04951 -0.151631,0.083172 -0.071993,0.13256l0,0z"/>
    </g>
   </g>
   <g stroke="null" id="svg_230">
    <g stroke="null" id="svg_231">
     <path stroke="null" id="svg_232" fill="#2F353A" d="m27.286903,9.772773c0.824102,0.594124 1.395599,1.493541 2.08313,2.246638c0.064577,0.070764 0.165322,-0.037962 0.100973,-0.108603c-0.697001,-0.76354 -1.276599,-1.66824 -2.11211,-2.270595c-0.076671,-0.055284 -0.14798,0.077767 -0.071993,0.13256l0,0z"/>
    </g>
   </g>
   <g stroke="null" id="svg_233">
    <g stroke="null" id="svg_234">
     <path stroke="null" id="svg_235" fill="#2F353A" d="m27.695816,9.21784c0.40994,0.429008 0.854451,0.810593 1.198901,1.306434c0.337376,0.485889 0.606182,1.015515 0.979384,1.473393c0.060812,0.074573 0.161329,-0.034522 0.100973,-0.108603c-0.40549,-0.497437 -0.682853,-1.086401 -1.06678,-1.599564c-0.327906,-0.438345 -0.738189,-0.78934 -1.111505,-1.180262c-0.065946,-0.069044 -0.16692,0.039559 -0.100973,0.108603l0,0z"/>
    </g>
   </g>
   <g stroke="null" id="svg_236">
    <g stroke="null" id="svg_237">
     <path stroke="null" id="svg_238" fill="#2F353A" d="m28.018588,8.826917c0.754162,0.700762 1.385102,1.503984 1.965499,2.373424c0.053168,0.07961 0.17696,0.003071 0.123222,-0.077521c-0.587014,-0.879146 -1.224572,-1.695391 -1.987747,-2.404506c-0.069369,-0.064253 -0.170799,0.043859 -0.100973,0.108603l0,0z"/>
    </g>
   </g>
   <g stroke="null" id="svg_239">
    <g stroke="null" id="svg_240">
     <path stroke="null" id="svg_241" fill="#2F353A" d="m28.517179,8.404543c0.839732,0.539208 1.333532,1.473024 1.769485,2.38313c0.042215,0.088087 0.165208,0.01032 0.123222,-0.077521c-0.447705,-0.934308 -0.959417,-1.885201 -1.820713,-2.438169c-0.079295,-0.050862 -0.150946,0.081944 -0.071993,0.13256l0,0z"/>
    </g>
   </g>
   <g stroke="null" id="svg_242">
    <g stroke="null" id="svg_243">
     <path stroke="null" id="svg_244" fill="#2F353A" d="m28.845542,7.84961c0.65239,0.69855 1.338095,1.378181 1.70331,2.308311c0.035711,0.090912 0.158591,0.012654 0.123222,-0.077521c-0.369893,-0.941925 -1.064612,-1.631629 -1.725559,-2.339394c-0.065376,-0.069781 -0.166235,0.038822 -0.100973,0.108603l0,0z"/>
    </g>
   </g>
  </g>
  <g id="Layer_2"/>
 </g>
</svg>
