<?xml version="1.0" ?><!DOCTYPE svg  PUBLIC '-//W3C//DTD SVG 1.1//EN'  'http://www.w3.org/Graphics/SVG/1.1/DTD/svg11.dtd'><svg enable-background="new 0 0 512 512" height="512px" id="Layer_1" version="1.1" viewBox="0 0 512 512" width="512px" xml:space="preserve" xmlns="http://www.w3.org/2000/svg" xmlns:xlink="http://www.w3.org/1999/xlink"><g><path d="   M281.278,493.186c5.821-1.507,11.221-3.617,15.393-6.562" fill="none" stroke="#231F20" stroke-linecap="round" stroke-linejoin="round" stroke-miterlimit="10" stroke-width="3"/><path d="   M256.485,496.582c3.849-0.184,8.057-0.51,12.336-1.061" fill="none" stroke="#231F20" stroke-linecap="round" stroke-linejoin="round" stroke-miterlimit="10" stroke-width="3"/><path d="M482.667,348.145h-34.555c0.793,2.525,1.223,5.212,1.223,8c0,0.747-0.039,1.485-0.099,2.217   c7.981,1.238,14.098,8.12,14.098,16.449c0,9.205-7.462,16.666-16.667,16.666H24.001c-9.204,0-16.667-7.461-16.667-16.666   s7.463-16.667,16.667-16.667h77.416c-0.05-0.661-0.083-1.326-0.083-1.999c0-14.729,11.939-26.668,26.667-26.668h186.132   c0.99-8.26,8.011-14.666,16.536-14.666h151.998c9.205,0,16.667,7.462,16.667,16.667   C499.334,340.682,491.872,348.145,482.667,348.145z" fill="#D7ECF4"/><path d="M55.666,212.144h1.017c-0.446,2.152-0.683,4.381-0.683,6.665v3.334c0,18.041,14.625,32.667,32.666,32.667   h89.337c-0.433,1.933-0.669,3.938-0.669,6.001v0.667c0,15.096,12.237,27.333,27.333,27.333h256.667   c15.096,0,27.333-12.237,27.333-27.333v-0.667c0-15.096-12.237-27.333-27.333-27.333H224.645c1.307-3.531,2.022-7.35,2.022-11.335   v-3.334c0-2.284-0.236-4.513-0.683-6.665h210.35c10.861,0,19.666-8.805,19.666-19.667c0-10.861-8.805-19.666-19.666-19.666H55.666   c-10.861,0-19.666,8.805-19.666,19.666C36,203.339,44.805,212.144,55.666,212.144z" fill="#D7ECF4"/><path d="M44.667,448.811h50c4.476,0,8.301-2.76,9.884-6.666h29.463c8.094,0,14.654-6.562,14.654-14.654   c0-8.094-6.561-14.654-14.654-14.654H65.322c-8.09,0-14.646,6.555-14.653,14.641h-6.002c-5.892,0-10.667,4.776-10.667,10.667   C34,444.035,38.775,448.811,44.667,448.811z" fill="#D7ECF4"/><path d="M487.332,66.81h-48.624c0.838,3.419,1.292,6.989,1.292,10.667c0,7.24-1.733,14.071-4.791,20.119   c7.951,0.93,14.125,7.68,14.125,15.881c0,8.837-7.164,16-16,16H170.666c-8.836,0-16-7.163-16-16s7.164-16,16-16h62.063   c-3.021-6.019-4.729-12.808-4.729-20c0-3.678,0.453-7.248,1.291-10.667H86.666c-9.572,0-17.333-7.761-17.333-17.333   c0-9.573,7.761-17.334,17.333-17.334h400.666c9.573,0,17.334,7.761,17.334,17.334C504.666,59.049,496.905,66.81,487.332,66.81z" fill="#D7ECF4"/><g><line fill="none" stroke="#231F20" stroke-linecap="round" stroke-linejoin="round" stroke-miterlimit="10" stroke-width="3" x1="60.284" x2="95.867" y1="39.471" y2="68.623"/><polyline fill="none" points="    58.971,31.015 59.786,39.225 51.576,40.04   " stroke="#231F20" stroke-linecap="round" stroke-linejoin="round" stroke-miterlimit="10" stroke-width="3"/><polyline fill="none" points="    96.539,76.877 95.724,68.667 103.934,67.852   " stroke="#231F20" stroke-linecap="round" stroke-linejoin="round" stroke-miterlimit="10" stroke-width="3"/><line fill="none" stroke="#231F20" stroke-linecap="round" stroke-linejoin="round" stroke-miterlimit="10" stroke-width="3" x1="56.484" x2="99.522" y1="61.838" y2="45.599"/><polyline fill="none" points="    48.505,58.746 56.022,62.146 52.623,69.663   " stroke="#231F20" stroke-linecap="round" stroke-linejoin="round" stroke-miterlimit="10" stroke-width="3"/><polyline fill="none" points="    107.006,49.143 99.488,45.745 102.887,38.228   " stroke="#231F20" stroke-linecap="round" stroke-linejoin="round" stroke-miterlimit="10" stroke-width="3"/><line fill="none" stroke="#231F20" stroke-linecap="round" stroke-linejoin="round" stroke-miterlimit="10" stroke-width="3" x1="73.955" x2="81.409" y1="76.312" y2="30.921"/><polyline fill="none" points="    67.288,81.676 73.99,76.865 78.801,83.568   " stroke="#231F20" stroke-linecap="round" stroke-linejoin="round" stroke-miterlimit="10" stroke-width="3"/><polyline fill="none" points="    88.221,26.212 81.52,31.023 76.709,24.32   " stroke="#231F20" stroke-linecap="round" stroke-linejoin="round" stroke-miterlimit="10" stroke-width="3"/></g><g><line fill="none" stroke="#231F20" stroke-linecap="round" stroke-linejoin="round" stroke-miterlimit="10" stroke-width="1.6096" x1="458.268" x2="458.268" y1="148.521" y2="123.84"/><polyline fill="none" points="    455.205,151.94 458.334,148.811 461.465,151.94   " stroke="#231F20" stroke-linecap="round" stroke-linejoin="round" stroke-miterlimit="10" stroke-width="1.6096"/><polyline fill="none" points="    461.465,120.755 458.334,123.885 455.205,120.755   " stroke="#231F20" stroke-linecap="round" stroke-linejoin="round" stroke-miterlimit="10" stroke-width="1.6096"/><line fill="none" stroke="#231F20" stroke-linecap="round" stroke-linejoin="round" stroke-miterlimit="10" stroke-width="1.6096" x1="468.842" x2="447.469" y1="142.492" y2="130.152"/><polyline fill="none" points="    470.272,146.854 469.127,142.579 473.402,141.434   " stroke="#231F20" stroke-linecap="round" stroke-linejoin="round" stroke-miterlimit="10" stroke-width="1.6096"/><polyline fill="none" points="    446.396,125.841 447.541,130.116 443.266,131.262   " stroke="#231F20" stroke-linecap="round" stroke-linejoin="round" stroke-miterlimit="10" stroke-width="1.6096"/><line fill="none" stroke="#231F20" stroke-linecap="round" stroke-linejoin="round" stroke-miterlimit="10" stroke-width="1.6096" x1="468.908" x2="447.536" y1="130.319" y2="142.659"/><polyline fill="none" points="    473.402,131.263 469.127,130.116 470.273,125.841   " stroke="#231F20" stroke-linecap="round" stroke-linejoin="round" stroke-miterlimit="10" stroke-width="1.6096"/><polyline fill="none" points="    443.266,141.434 447.541,142.579 446.396,146.855   " stroke="#231F20" stroke-linecap="round" stroke-linejoin="round" stroke-miterlimit="10" stroke-width="1.6096"/></g><g><line fill="none" stroke="#231F20" stroke-linecap="round" stroke-linejoin="round" stroke-miterlimit="10" stroke-width="1.6096" x1="480.27" x2="480.27" y1="99.553" y2="74.872"/><polyline fill="none" points="    477.207,102.973 480.336,99.843 483.466,102.973   " stroke="#231F20" stroke-linecap="round" stroke-linejoin="round" stroke-miterlimit="10" stroke-width="1.6096"/><polyline fill="none" points="    483.466,71.787 480.336,74.917 477.207,71.787   " stroke="#231F20" stroke-linecap="round" stroke-linejoin="round" stroke-miterlimit="10" stroke-width="1.6096"/><line fill="none" stroke="#231F20" stroke-linecap="round" stroke-linejoin="round" stroke-miterlimit="10" stroke-width="1.6096" x1="490.844" x2="469.471" y1="93.524" y2="81.185"/><polyline fill="none" points="    492.273,97.887 491.129,93.611 495.404,92.466   " stroke="#231F20" stroke-linecap="round" stroke-linejoin="round" stroke-miterlimit="10" stroke-width="1.6096"/><polyline fill="none" points="    468.396,76.873 469.543,81.148 465.268,82.294   " stroke="#231F20" stroke-linecap="round" stroke-linejoin="round" stroke-miterlimit="10" stroke-width="1.6096"/><line fill="none" stroke="#231F20" stroke-linecap="round" stroke-linejoin="round" stroke-miterlimit="10" stroke-width="1.6096" x1="490.91" x2="469.537" y1="81.352" y2="93.691"/><polyline fill="none" points="    495.404,82.295 491.129,81.148 492.274,76.873   " stroke="#231F20" stroke-linecap="round" stroke-linejoin="round" stroke-miterlimit="10" stroke-width="1.6096"/><polyline fill="none" points="    465.268,92.466 469.543,93.611 468.396,97.888   " stroke="#231F20" stroke-linecap="round" stroke-linejoin="round" stroke-miterlimit="10" stroke-width="1.6096"/></g><g><line fill="none" stroke="#231F20" stroke-linecap="round" stroke-linejoin="round" stroke-miterlimit="10" stroke-width="3" x1="442.584" x2="442.584" y1="444.557" y2="398.557"/><rect fill="none" height="8.25" stroke="#231F20" stroke-linecap="round" stroke-linejoin="round" stroke-miterlimit="10" stroke-width="3" transform="matrix(-0.7071 -0.7071 0.7071 -0.7071 436.8947 1082.8309)" width="8.25" x="438.584" y="446.806"/><rect fill="none" height="8.25" stroke="#231F20" stroke-linecap="round" stroke-linejoin="round" stroke-miterlimit="10" stroke-width="3" transform="matrix(-0.7071 -0.7071 0.7071 -0.7071 477.9953 983.6053)" width="8.25" x="438.584" y="388.681"/><line fill="none" stroke="#231F20" stroke-linecap="round" stroke-linejoin="round" stroke-miterlimit="10" stroke-width="3" x1="462.294" x2="422.457" y1="433.321" y2="410.321"/><rect fill="none" height="8.251" stroke="#231F20" stroke-linecap="round" stroke-linejoin="round" stroke-miterlimit="10" stroke-width="3" transform="matrix(-0.9659 0.2589 -0.2589 -0.9659 1032.7795 736.8007)" width="8.25" x="463.752" y="432.275"/><rect fill="none" height="8.251" stroke="#231F20" stroke-linecap="round" stroke-linejoin="round" stroke-miterlimit="10" stroke-width="3" transform="matrix(-0.9659 0.2589 -0.2589 -0.9659 926.3058 692.682)" width="8.249" x="413.416" y="403.212"/><line fill="none" stroke="#231F20" stroke-linecap="round" stroke-linejoin="round" stroke-miterlimit="10" stroke-width="3" x1="462.419" x2="422.582" y1="410.635" y2="433.634"/><rect fill="none" height="8.251" stroke="#231F20" stroke-linecap="round" stroke-linejoin="round" stroke-miterlimit="10" stroke-width="3" transform="matrix(-0.2589 0.9659 -0.9659 -0.2589 982.4523 60.8623)" width="8.25" x="463.752" y="403.213"/><rect fill="none" height="8.251" stroke="#231F20" stroke-linecap="round" stroke-linejoin="round" stroke-miterlimit="10" stroke-width="3" transform="matrix(-0.2588 0.9659 -0.9659 -0.2588 947.1306 146.025)" width="8.249" x="413.415" y="432.275"/></g><g><line fill="none" stroke="#231F20" stroke-linecap="round" stroke-linejoin="round" stroke-miterlimit="10" stroke-width="1.4238" x1="89.61" x2="106.498" y1="435.49" y2="449.326"/><rect fill="none" height="3.917" stroke="#231F20" stroke-linecap="round" stroke-linejoin="round" stroke-miterlimit="10" stroke-width="1.4238" transform="matrix(0.9951 -0.099 0.099 0.9951 -42.5038 10.7675)" width="3.916" x="85.275" y="431.66"/><rect fill="none" height="3.917" stroke="#231F20" stroke-linecap="round" stroke-linejoin="round" stroke-miterlimit="10" stroke-width="1.4238" transform="matrix(0.9951 -0.099 0.099 0.9951 -44.1299 12.9662)" width="3.916" x="106.613" y="449.142"/><line fill="none" stroke="#231F20" stroke-linecap="round" stroke-linejoin="round" stroke-miterlimit="10" stroke-width="1.4238" x1="87.808" x2="108.232" y1="446.105" y2="438.398"/><rect fill="none" height="3.916" stroke="#231F20" stroke-linecap="round" stroke-linejoin="round" stroke-miterlimit="10" stroke-width="1.4238" transform="matrix(0.412 -0.9112 0.9112 0.412 -357.5346 340.4379)" width="3.916" x="83.039" y="445.271"/><rect fill="none" height="3.916" stroke="#231F20" stroke-linecap="round" stroke-linejoin="round" stroke-miterlimit="10" stroke-width="1.4238" transform="matrix(0.4119 -0.9112 0.9112 0.4119 -333.4856 358.2381)" width="3.914" x="108.849" y="435.533"/><line fill="none" stroke="#231F20" stroke-linecap="round" stroke-linejoin="round" stroke-miterlimit="10" stroke-width="1.4238" x1="96.098" x2="99.636" y1="452.975" y2="431.434"/><rect fill="none" height="3.917" stroke="#231F20" stroke-linecap="round" stroke-linejoin="round" stroke-miterlimit="10" stroke-width="1.4238" transform="matrix(-0.5831 -0.8124 0.8124 -0.5831 -218.9609 799.5833)" width="3.915" x="93.708" y="454.011"/><rect fill="none" height="3.915" stroke="#231F20" stroke-linecap="round" stroke-linejoin="round" stroke-miterlimit="10" stroke-width="1.4238" transform="matrix(-0.5833 -0.8123 0.8123 -0.5833 -189.721 760.1633)" width="3.915" x="98.18" y="426.791"/></g><g><line fill="none" stroke="#231F20" stroke-linecap="round" stroke-linejoin="round" stroke-miterlimit="10" stroke-width="1.4238" x1="42.61" x2="59.498" y1="113.49" y2="127.326"/><rect fill="none" height="3.917" stroke="#231F20" stroke-linecap="round" stroke-linejoin="round" stroke-miterlimit="10" stroke-width="1.4238" transform="matrix(0.9951 -0.099 0.099 0.9951 -10.8536 4.5319)" width="3.916" x="38.275" y="109.66"/><rect fill="none" height="3.917" stroke="#231F20" stroke-linecap="round" stroke-linejoin="round" stroke-miterlimit="10" stroke-width="1.4238" transform="matrix(0.9951 -0.099 0.099 0.9951 -12.4797 6.7305)" width="3.916" x="59.613" y="127.142"/><line fill="none" stroke="#231F20" stroke-linecap="round" stroke-linejoin="round" stroke-miterlimit="10" stroke-width="1.4238" x1="40.808" x2="61.232" y1="124.105" y2="116.398"/><rect fill="none" height="3.916" stroke="#231F20" stroke-linecap="round" stroke-linejoin="round" stroke-miterlimit="10" stroke-width="1.4238" transform="matrix(0.412 -0.9112 0.9112 0.412 -91.7655 108.2628)" width="3.916" x="36.039" y="123.271"/><rect fill="none" height="3.916" stroke="#231F20" stroke-linecap="round" stroke-linejoin="round" stroke-miterlimit="10" stroke-width="1.4238" transform="matrix(0.4119 -0.9112 0.9112 0.4119 -67.7146 126.0562)" width="3.914" x="61.849" y="113.533"/><line fill="none" stroke="#231F20" stroke-linecap="round" stroke-linejoin="round" stroke-miterlimit="10" stroke-width="1.4238" x1="49.098" x2="52.636" y1="130.975" y2="109.434"/><rect fill="none" height="3.917" stroke="#231F20" stroke-linecap="round" stroke-linejoin="round" stroke-miterlimit="10" stroke-width="1.4238" transform="matrix(-0.5831 -0.8124 0.8124 -0.5831 -31.787 251.6285)" width="3.915" x="46.708" y="132.011"/><rect fill="none" height="3.915" stroke="#231F20" stroke-linecap="round" stroke-linejoin="round" stroke-miterlimit="10" stroke-width="1.4238" transform="matrix(-0.5833 -0.8123 0.8123 -0.5833 -2.5799 212.1745)" width="3.915" x="51.18" y="104.791"/></g><path d="   M179.904,142.423c-11.96,5.073-16.21-13.177-0.919-12.739" fill="#FFFFFF" stroke="#231F20" stroke-linecap="round" stroke-linejoin="round" stroke-miterlimit="10" stroke-width="4"/><path d="   M318.885,145.173c11.96,5.073,16.21-13.177,0.919-12.739" fill="#FFFFFF" stroke="#231F20" stroke-linecap="round" stroke-linejoin="round" stroke-miterlimit="10" stroke-width="4"/><path d="   M174.839,257.244c0,0-37.886-8.321-50.164-14.163c-27.838,13.323-31.884-8.002-18.425-12.097   c-10.346-5.645-6.439-19.786,4.628-19.01c-7.687-8.649,1.942-27.669,20.851-7.31c30.88,6.003,54.703,17.552,54.703,17.552   L174.839,257.244z" fill="#FFFFFF" stroke="#231F20" stroke-linecap="round" stroke-linejoin="round" stroke-miterlimit="10" stroke-width="6"/><path d="   M331.905,244.494c0,0,37.886-8.321,50.164-14.163c27.838,13.323,31.884-8.002,18.425-12.097c10.346-5.645,6.439-19.786-4.628-19.01   c7.687-8.649-1.942-27.669-20.851-7.31c-30.88,6.003-54.703,17.552-54.703,17.552L331.905,244.494z" fill="#FFFFFF" stroke="#231F20" stroke-linecap="round" stroke-linejoin="round" stroke-miterlimit="10" stroke-width="6"/><path d="   M204.694,48.246c-22.75-13-58.75,22-66.75,48.75s-8.248,50.751-19.5,64.5c27.75,4.75,51.5,49.25,98.75,25.5   c-22.25-35.25-33.25-63.75-17.75-91S204.694,48.246,204.694,48.246z" fill="#CCCCCC" stroke="#231F20" stroke-linecap="round" stroke-linejoin="round" stroke-miterlimit="10" stroke-width="6"/><path d="   M243.444,200.246l-7,30c0,0,26.25,6.75,44.75-12.5c-7.75-17.75-6.5-28.75-6.5-28.75L243.444,200.246z" fill="#FFFFFF" stroke="#231F20" stroke-linecap="round" stroke-linejoin="round" stroke-miterlimit="10" stroke-width="6"/><path d="   M302.694,44.746c22.75-13,55.004,10.917,63.004,37.667s3.418,70.418,15.333,83.334c-27.75,4.75-36,25.333-90.837,17.749   c22.25-35.25,33.25-63.75,17.75-91S302.694,44.746,302.694,44.746z" fill="#CCCCCC" stroke="#231F20" stroke-linecap="round" stroke-linejoin="round" stroke-miterlimit="10" stroke-width="6"/><path d="   M251.194,77.746c-46.001,2.474-74.5,24-70.5,60.5s37.5,69.5,62,68s73.5-25,76-71S297.694,75.246,251.194,77.746z" fill="#FFFFFF" stroke="#231F20" stroke-linecap="round" stroke-linejoin="round" stroke-miterlimit="10" stroke-width="6"/><g><path d="M317.19,78.362c0,0-6-24.668,2-41.334    s-14-28-30-19.333s-30.666,8.667-30.666,8.667h-8.303c0,0-14.666,0-30.666-8.667s-38,2.667-30,19.333s2,41.334,2,41.334" fill="#FFFFFF" stroke="#231F20" stroke-miterlimit="10" stroke-width="6"/><path d="    M274.222,49.362c0,10.493-8.508,19-19,19l0,0c-10.494,0-19-8.507-19-19V38.695c0-10.493,8.506-19,19-19l0,0    c10.492,0,19,8.507,19,19V49.362z" fill="#D7ECF4" stroke="#231F20" stroke-linecap="round" stroke-linejoin="round" stroke-miterlimit="10" stroke-width="5.7959"/></g><path d="M261.444,48.496c0,0-27.5-15.25-57.75,2.25   c-44,12.75-23,78.5,50.25,44.25c53.75,18,79-12.5,62.25-31C313.694,37.746,274.694,37.246,261.444,48.496z" fill="#CCCCCC" stroke="#231F20" stroke-miterlimit="10" stroke-width="6"/><path d="   M261.444,48.496c0,0-54.75-24-68.5,22.75" fill="none" stroke="#231F20" stroke-linecap="round" stroke-linejoin="round" stroke-miterlimit="10" stroke-width="6"/><path d="   M236.122,101.736c5.545-1.564,23.072-9.74,28.572-18.24" fill="none" stroke="#231F20" stroke-linecap="round" stroke-linejoin="round" stroke-miterlimit="10" stroke-width="6"/><path d="   M272.246,43.195c-4.32,1.198-17.302,8.551-22.052,14.301" fill="none" stroke="#231F20" stroke-linecap="round" stroke-linejoin="round" stroke-miterlimit="10" stroke-width="6"/><path d="   M240.896,149.331c-6.293,5.763-16.701-2.835-8.347-9.668" fill="#FFFFFF" stroke="#231F20" stroke-linecap="round" stroke-linejoin="round" stroke-miterlimit="10" stroke-width="4"/><line fill="none" stroke="#231F20" stroke-linecap="round" stroke-linejoin="round" stroke-miterlimit="10" stroke-width="4" x1="198.694" x2="212.694" y1="129.246" y2="124.246"/><line fill="none" stroke="#231F20" stroke-linecap="round" stroke-linejoin="round" stroke-miterlimit="10" stroke-width="4" x1="272.527" x2="285.194" y1="125.412" y2="129.496"/><path d="   M229.166,174.054c0,0,8.012,3.765,19.028-1.308" fill="none" stroke="#231F20" stroke-linecap="round" stroke-linejoin="round" stroke-miterlimit="10" stroke-width="4"/><path d="   M199.361,296.411c0,0-14-4.999-21-8.666s-16-0.334-10,42.666C181.027,332.078,195.695,327.411,199.361,296.411z" fill="#D7ECF4" stroke="#231F20" stroke-linecap="round" stroke-linejoin="round" stroke-miterlimit="10" stroke-width="5.7959"/><path d="   M209.694,395.079c0,0,5.334,19.334,3.667,26c-1.999,6.661-18.332,30.661-23,40.666c-3.991,8.555-6.333,16.001,2,25.334   s22.334,12.332,34-1.334s21.999-39.666,25.666-45.666s-5.333-39.334-5.333-39.334L209.694,395.079z" fill="#FFFFFF" stroke="#231F20" stroke-linecap="round" stroke-linejoin="round" stroke-miterlimit="10" stroke-width="6"/><path d="   M264.028,404.412c0,0-3.334,10-2.667,13s29.999,25,48.333,29s23-12.334,17-24s-12-23.333-12-23.333   S291.028,408.078,264.028,404.412z" fill="#FFFFFF" stroke="#231F20" stroke-linecap="round" stroke-linejoin="round" stroke-miterlimit="10" stroke-width="6"/><path d="   M318.062,281.077c0,0,14-4.999,21-8.666s16-0.334,10,42.666C336.396,316.744,321.728,312.077,318.062,281.077z" fill="#D7ECF4" stroke="#231F20" stroke-linecap="round" stroke-linejoin="round" stroke-miterlimit="10" stroke-width="5.7959"/><path d="   M188.444,214.996c3.982,0.839,36.75,7.75,50.25,9c12.75,1.5,33,0.75,41-9.75c7.25-5.5,47-11.75,51.5-11.75s5.75,6.25,6.25,17.25   s-0.75,17.75-2,22.5s-3.75,5.75-8.75,7.5s-14.5,6-14.5,8.5s13,39,19.5,48s20,7.75,40.75,0.75s36-14.5,32.25,14.5   s-33.25,88.25-132,89.25s-128-39.75-138.5-63.25s-2.25-25.25,9.25-22.5s34.5,6.25,41-4.5s16-44,17-46.25s-9.222,0.369-39.25-12.5   c-3.5-1.5-1.5-17.25,7.25-32S183.694,213.996,188.444,214.996z" fill="#FFFFFF" stroke="#231F20" stroke-linecap="round" stroke-linejoin="round" stroke-miterlimit="10" stroke-width="6"/><path d="   M294.548,208.934c-6.813,1.692-12.519,3.541-14.854,5.312c-8,10.5-28.25,11.25-41,9.75c-4.938-0.457-12.452-1.672-20.193-3.069   c-11.557,9.569-1.057,24.319,14.193,16.319c9.5,14.5,29.5,6.25,30.5-1.5c12,8,27.5-2.25,22.5-11   C297.194,225.246,300.151,210.871,294.548,208.934z" fill="none" stroke="#231F20" stroke-linecap="round" stroke-linejoin="round" stroke-miterlimit="10" stroke-width="6"/><path d="   M193.944,297.246c0,0,65,19.25,125.5-15.75c8.25,17.5,10.75,23.75,10.75,23.75s-62.5,48.25-144.5,12.25   C189.694,308.996,193.944,297.246,193.944,297.246z" fill="#D7ECF4" stroke="#231F20" stroke-linecap="round" stroke-linejoin="round" stroke-miterlimit="10" stroke-width="5.7959"/><path d="   M44.791,268.965c-2.274-1.831-4.336-3.793-6.095-5.89" fill="none" stroke="#231F20" stroke-linecap="round" stroke-linejoin="round" stroke-miterlimit="10" stroke-width="3"/><path d="   M59.276,277.933c-3.636-1.785-7.196-3.786-10.475-6.011" fill="none" stroke="#231F20" stroke-linecap="round" stroke-linejoin="round" stroke-miterlimit="10" stroke-width="3"/><path d="   M94.028,289.744c0,0-15.25-3.076-30.574-9.864" fill="none" stroke="#231F20" stroke-linecap="round" stroke-linejoin="round" stroke-miterlimit="10" stroke-width="3"/><path d="   M44.188,232.871c6.807-8.305,21.349-12.779,33.507-8.793" fill="none" stroke="#231F20" stroke-linecap="round" stroke-linejoin="round" stroke-miterlimit="10" stroke-width="3"/><path d="   M68.707,272.042c-8.68-3.92-18.402-9.903-24.679-18.631c-3.764-5.233-4.443-10.314-3.027-14.791" fill="none" stroke="#231F20" stroke-linecap="round" stroke-linejoin="round" stroke-miterlimit="10" stroke-width="3"/><path d="   M87.695,278.411c0,0-3.317-0.663-8.248-2.247" fill="none" stroke="#231F20" stroke-linecap="round" stroke-linejoin="round" stroke-miterlimit="10" stroke-width="3"/><path d="   M301.872,475.066c0.98-1.221,1.888-2.567,2.683-4.052" fill="none" stroke="#231F20" stroke-linecap="round" stroke-linejoin="round" stroke-miterlimit="10" stroke-width="3"/><path d="   M281.913,486.446c0,0,8.627-1.291,15.936-7.323" fill="none" stroke="#231F20" stroke-linecap="round" stroke-linejoin="round" stroke-miterlimit="10" stroke-width="3"/><path d="   M282.923,498.792c0,0,46.641-12.399,46.029-40.133" fill="none" stroke="#231F20" stroke-linecap="round" stroke-linejoin="round" stroke-miterlimit="10" stroke-width="3"/><path d="M189.028,222.079c-3.914-0.824-4.341-2.831-11.549,9.321c-7.209,12.152-8.856,25.129-5.974,26.364   c24.74,10.603,34.122,11.264,32.337,10.299C173.028,251.413,192.31,222.771,189.028,222.079z" fill="#E5E5E5"/><path d="M185.113,328.91c-5.405,8.939-24.533,6.029-34.096,3.742c-9.563-2.287-16.425-0.831-7.692,18.711   c4.9,10.966,43.238,53.327,115.177,52.599C340.621,403.131,170.03,381.413,185.113,328.91z" fill="#E5E5E5"/><path d="M216.399,428.319c-1.627,5.419-14.916,24.946-18.715,33.086c-3.247,6.96-5.152,13.019,1.628,20.612   c6.779,7.594,8.896,4.178,18.387-6.94C227.191,463.958,217.755,422.896,216.399,428.319z" fill="#E5E5E5"/><path d="M269.368,414.411c-0.229,1.237-0.676,1.406-0.53,2.063c0.499,2.247,22.464,18.721,36.194,21.716   c13.729,2.996,0.648-26.861-4.997-26.112C289.504,413.476,275.663,415.022,269.368,414.411z" fill="#E5E5E5"/><path d="   M151.09,87.601c-1.354,2.555-2.521,5.276-3.396,8.146" fill="none" stroke="#231F20" stroke-linecap="round" stroke-linejoin="round" stroke-miterlimit="10" stroke-width="3"/><path d="   M173.361,63.413c0,0-10.319,6.646-18.288,17.785" fill="none" stroke="#231F20" stroke-linecap="round" stroke-linejoin="round" stroke-miterlimit="10" stroke-width="3"/><path d="   M153.517,96.803c-2.957,7.289-5.969,17.644-7.822,31.944" fill="none" stroke="#231F20" stroke-linecap="round" stroke-linejoin="round" stroke-miterlimit="10" stroke-width="3"/><path d="   M162.361,81.747c0,0-2.495,2.287-5.652,8.189" fill="none" stroke="#231F20" stroke-linecap="round" stroke-linejoin="round" stroke-miterlimit="10" stroke-width="3"/><path d="   M334.361,181.747c0,0,5.666-12.333,3.666-28" fill="none" stroke="#231F20" stroke-linecap="round" stroke-linejoin="round" stroke-miterlimit="10" stroke-width="3"/><path d="   M345.487,128.4c-0.406-3.064-0.89-6.281-1.46-9.653" fill="none" stroke="#231F20" stroke-linecap="round" stroke-linejoin="round" stroke-miterlimit="10" stroke-width="3"/><path d="   M344.361,179.747c0,0,5.03-12.697,2.093-42.97" fill="none" stroke="#231F20" stroke-linecap="round" stroke-linejoin="round" stroke-miterlimit="10" stroke-width="3"/><path d="   M330.026,314.746c0,0,8.667,7.333,15.667,5" fill="none" stroke="#231F20" stroke-linecap="round" stroke-linejoin="round" stroke-miterlimit="10" stroke-width="3"/><path d="   M331.026,322.413c0,0,5.334,3.334,9.667,2.667" fill="none" stroke="#231F20" stroke-linecap="round" stroke-linejoin="round" stroke-miterlimit="10" stroke-width="3"/><line fill="none" stroke="#231F20" stroke-linecap="round" stroke-linejoin="round" stroke-miterlimit="10" stroke-width="3" x1="332.026" x2="337.026" y1="328.747" y2="329.747"/><line fill="none" stroke="#231F20" stroke-linecap="round" stroke-linejoin="round" stroke-miterlimit="10" stroke-width="3" x1="211.027" x2="205.693" y1="271.412" y2="290.746"/><line fill="none" stroke="#231F20" stroke-linecap="round" stroke-linejoin="round" stroke-miterlimit="10" stroke-width="3" x1="212.36" x2="210.693" y1="281.746" y2="288.079"/></g></svg>
